<?xml version="1.0" standalone="no"?>
<svg style="background: #fff" xmlns="http://www.w3.org/2000/svg" xmlns:xlink="http://www.w3.org/1999/xlink" version="1.1" width="225px" height="608px" viewBox="-0.5 -0.5 225 608"><defs><style>* {margin: 0px; padding: 0px;}</style><clipPath id="mx-clip-4-31-210-26-0"><rect x="4" y="31" width="210" height="26"/></clipPath><clipPath id="mx-clip-4-57-210-26-0"><rect x="4" y="57" width="210" height="26"/></clipPath><clipPath id="mx-clip-4-83-210-26-0"><rect x="4" y="83" width="210" height="26"/></clipPath><clipPath id="mx-clip-4-109-210-26-0"><rect x="4" y="109" width="210" height="26"/></clipPath><clipPath id="mx-clip-4-135-210-26-0"><rect x="4" y="135" width="210" height="26"/></clipPath><clipPath id="mx-clip-4-161-210-26-0"><rect x="4" y="161" width="210" height="26"/></clipPath><clipPath id="mx-clip-4-187-210-26-0"><rect x="4" y="187" width="210" height="26"/></clipPath><clipPath id="mx-clip-4-213-210-26-0"><rect x="4" y="213" width="210" height="26"/></clipPath><clipPath id="mx-clip-4-239-210-26-0"><rect x="4" y="239" width="210" height="26"/></clipPath><clipPath id="mx-clip-4-265-210-26-0"><rect x="4" y="265" width="210" height="26"/></clipPath><clipPath id="mx-clip-14-375-190-26-0"><rect x="14" y="375" width="190" height="26"/></clipPath><clipPath id="mx-clip-14-401-190-26-0"><rect x="14" y="401" width="190" height="26"/></clipPath><clipPath id="mx-clip-14-427-190-26-0"><rect x="14" y="427" width="190" height="26"/></clipPath><clipPath id="mx-clip-14-453-190-26-0"><rect x="14" y="453" width="190" height="26"/></clipPath><clipPath id="mx-clip-14-479-190-26-0"><rect x="14" y="479" width="190" height="26"/></clipPath><clipPath id="mx-clip-14-505-190-26-0"><rect x="14" y="505" width="190" height="26"/></clipPath><clipPath id="mx-clip-14-531-190-26-0"><rect x="14" y="531" width="190" height="26"/></clipPath><clipPath id="mx-clip-14-557-190-26-0"><rect x="14" y="557" width="190" height="26"/></clipPath><clipPath id="mx-clip-14-583-190-26-0"><rect x="14" y="583" width="190" height="26"/></clipPath></defs><g><path d="M 0 26 L 0 0 L 218 0 L 218 26" fill="#f8cecc" stroke="#000000" stroke-miterlimit="10" pointer-events="none"/><path d="M 0 26 L 0 286 L 218 286 L 218 26" fill="none" stroke="#000000" stroke-miterlimit="10" pointer-events="none"/><path d="M 0 26 L 218 26" fill="none" stroke="#000000" stroke-miterlimit="10" pointer-events="none"/><g fill="#000000" font-family="Helvetica" font-weight="bold" text-anchor="middle" font-size="12px"><text x="108.5" y="18.5">electrodomestico</text></g><rect x="0" y="26" width="218" height="26" fill="#f8cecc" stroke="none" pointer-events="none"/><g fill="#000000" font-family="Helvetica" clip-path="url(#mx-clip-4-31-210-26-0)" font-size="12px"><text x="5.5" y="43.5">+ marca: String</text></g><rect x="0" y="52" width="218" height="26" fill="#f8cecc" stroke="none" pointer-events="none"/><g fill="#000000" font-family="Helvetica" clip-path="url(#mx-clip-4-57-210-26-0)" font-size="12px"><text x="5.5" y="69.5">+ modelo: String</text></g><rect x="0" y="78" width="218" height="26" fill="#f8cecc" stroke="none" pointer-events="none"/><g fill="#000000" font-family="Helvetica" clip-path="url(#mx-clip-4-83-210-26-0)" font-size="12px"><rect fill="#F8CECC" stroke="none" x="6" y="86" width="105" height="15" stroke-width="0"/><text x="5.5" y="95.5">+ capacidad: String</text></g><rect x="0" y="104" width="218" height="26" fill="#f8cecc" stroke="none" pointer-events="none"/><g fill="#000000" font-family="Helvetica" clip-path="url(#mx-clip-4-109-210-26-0)" font-size="12px"><text x="5.5" y="121.5">+ color: String</text></g><rect x="0" y="130" width="218" height="26" fill="#f8cecc" stroke="none" pointer-events="none"/><g fill="#000000" font-family="Helvetica" clip-path="url(#mx-clip-4-135-210-26-0)" font-size="12px"><rect fill="#F8CECC" stroke="none" x="6" y="138" width="96" height="15" stroke-width="0"/><text x="5.5" y="147.5">+ potencia: String</text></g><rect x="0" y="156" width="218" height="26" fill="#f8cecc" stroke="none" pointer-events="none"/><g fill="#000000" font-family="Helvetica" clip-path="url(#mx-clip-4-161-210-26-0)" font-size="12px"><rect fill="#F8CECC" stroke="none" x="6" y="164" width="64" height="15" stroke-width="0"/><text x="5.5" y="173.5">+ precio: int</text></g><path d="M 0 182 L 112 182 L 223 182" fill="none" stroke="#000000" stroke-miterlimit="10" pointer-events="none"/><rect x="0" y="182" width="218" height="26" fill="#f8cecc" stroke="none" pointer-events="none"/><g fill="#000000" font-family="Helvetica" clip-path="url(#mx-clip-4-187-210-26-0)" font-size="12px"><rect fill="#F8CECC" stroke="none" x="6" y="190" width="64" height="15" stroke-width="0"/><text x="5.5" y="199.5">+ enceder()</text></g><rect x="0" y="208" width="218" height="26" fill="#f8cecc" stroke="none" pointer-events="none"/><g fill="#000000" font-family="Helvetica" clip-path="url(#mx-clip-4-213-210-26-0)" font-size="12px"><rect fill="#F8CECC" stroke="none" x="6" y="216" width="58" height="15" stroke-width="0"/><text x="5.5" y="225.5">+ apagar()</text></g><rect x="0" y="234" width="218" height="26" fill="#f8cecc" stroke="none" pointer-events="none"/><g fill="#000000" font-family="Helvetica" clip-path="url(#mx-clip-4-239-210-26-0)" font-size="12px"><rect fill="#F8CECC" stroke="none" x="6" y="242" width="96" height="15" stroke-width="0"/><text x="5.5" y="251.5">+ publicarPrecio()</text></g><rect x="0" y="260" width="218" height="26" fill="#f8cecc" stroke="none" pointer-events="none"/><g fill="#000000" font-family="Helvetica" clip-path="url(#mx-clip-4-265-210-26-0)" font-size="12px"><rect fill="#F8CECC" stroke="none" x="6" y="268" width="106" height="15" stroke-width="0"/><text x="5.5" y="277.5">+ actualizarPrecio()</text></g><path d="M 10 370 L 10 344 L 208 344 L 208 370" fill="#f8cecc" stroke="#000000" stroke-miterlimit="10" pointer-events="none"/><path d="M 10 370 L 10 604 L 208 604 L 208 370" fill="none" stroke="#000000" stroke-miterlimit="10" pointer-events="none"/><path d="M 10 370 L 208 370" fill="none" stroke="#000000" stroke-miterlimit="10" pointer-events="none"/><g fill="#000000" font-family="Helvetica" text-anchor="middle" font-size="12px"><text x="108.5" y="361.5">Lavadora</text></g><rect x="10" y="370" width="198" height="26" fill="#f8cecc" stroke="none" pointer-events="none"/><g fill="#000000" font-family="Helvetica" clip-path="url(#mx-clip-14-375-190-26-0)" font-size="12px"><text x="15.5" y="387.5">+ numeroSerie: int</text></g><rect x="10" y="396" width="198" height="26" fill="#f8cecc" stroke="none" pointer-events="none"/><g fill="#000000" font-family="Helvetica" clip-path="url(#mx-clip-14-401-190-26-0)" font-size="12px"><text x="15.5" y="413.5">+ cronometroInterno: String</text></g><rect x="10" y="422" width="198" height="26" fill="#f8cecc" stroke="none" pointer-events="none"/><g fill="#000000" font-family="Helvetica" clip-path="url(#mx-clip-14-427-190-26-0)" font-size="12px"><text x="15.5" y="439.5">+ agregarRopa()</text></g><rect x="10" y="448" width="198" height="26" fill="#f8cecc" stroke="none" pointer-events="none"/><g fill="#000000" font-family="Helvetica" clip-path="url(#mx-clip-14-453-190-26-0)" font-size="12px"><text x="15.5" y="465.5">+ agregarAgua()</text></g><rect x="10" y="474" width="198" height="26" fill="#f8cecc" stroke="none" pointer-events="none"/><g fill="#000000" font-family="Helvetica" clip-path="url(#mx-clip-14-479-190-26-0)" font-size="12px"><text x="15.5" y="491.5">+ agregarJabon()</text></g><rect x="10" y="500" width="198" height="26" fill="#f8cecc" stroke="none" pointer-events="none"/><g fill="#000000" font-family="Helvetica" clip-path="url(#mx-clip-14-505-190-26-0)" font-size="12px"><text x="15.5" y="517.5">+ cronometrarRemojo()</text></g><rect x="10" y="526" width="198" height="26" fill="#f8cecc" stroke="none" pointer-events="none"/><g fill="#000000" font-family="Helvetica" clip-path="url(#mx-clip-14-531-190-26-0)" font-size="12px"><text x="15.5" y="543.5">+ cronometrarLavado()</text></g><rect x="10" y="552" width="198" height="26" fill="#f8cecc" stroke="none" pointer-events="none"/><g fill="#000000" font-family="Helvetica" clip-path="url(#mx-clip-14-557-190-26-0)" font-size="12px"><text x="15.5" y="569.5">+ cronometrarEnjuague()</text></g><rect x="10" y="578" width="198" height="26" fill="#f8cecc" stroke="none" pointer-events="none"/><g fill="#000000" font-family="Helvetica" clip-path="url(#mx-clip-14-583-190-26-0)" font-size="12px"><text x="15.5" y="595.5">+ sacarRopa()</text></g><path d="M 109 344 L 108.95 300.11" fill="none" stroke="#000000" stroke-miterlimit="10" pointer-events="none"/><path d="M 108.94 287.11 L 115.45 300.1 L 102.45 300.11 Z" fill="none" stroke="#000000" stroke-miterlimit="10" pointer-events="none"/><path d="M 10 422 L 122 422 L 208 422" fill="none" stroke="#000000" stroke-miterlimit="10" pointer-events="none"/></g></svg>